<svg width="92" height="90" viewBox="0 0 92 90" fill="none" xmlns="http://www.w3.org/2000/svg">
<g filter="url(#filter0_d_747_4746)">
<g clip-path="url(#clip0_747_4746)">
<path d="M16.7738 2.04298H70.6548C72.5954 2.04115 74.5174 2.42203 76.3106 3.16384C78.1039 3.90564 79.7333 4.99381 81.1055 6.36604C82.4777 7.73828 83.5659 9.36766 84.3077 11.1609C85.0495 12.9542 85.4304 14.8761 85.4286 16.8168V68.612C85.4304 70.5527 85.0495 72.4746 84.3077 74.2679C83.5659 76.0611 82.4777 77.6905 81.1055 79.0628C79.7333 80.435 78.1039 81.5232 76.3106 82.265C74.5174 83.0068 72.5954 83.3877 70.6548 83.3858H16.7738C14.8332 83.3877 12.9112 83.0068 11.118 82.265C9.32469 81.5232 7.69532 80.435 6.32308 79.0628C4.95084 77.6905 3.86268 76.0611 3.12087 74.2679C2.37907 72.4746 1.99818 70.5527 2.00001 68.612V16.8168C1.99818 14.8761 2.37907 12.9542 3.12087 11.1609C3.86268 9.36766 4.95084 7.73828 6.32308 6.36604C7.69532 4.99381 9.32469 3.90564 11.118 3.16384C12.9112 2.42203 14.8332 2.04115 16.7738 2.04298V2.04298Z" fill="white"/>
<path d="M35.024 68.7857C39.8236 68.7857 43.7145 64.8949 43.7145 60.0953V51.4048H35.024C30.2244 51.4048 26.3335 55.2956 26.3335 60.0953C26.3335 64.8949 30.2244 68.7857 35.024 68.7857Z" fill="#0ACF83"/>
<path d="M26.3335 42.7144C26.3335 37.9148 30.2244 34.0239 35.024 34.0239H43.7145V51.4049H35.024C30.2244 51.4049 26.3335 47.514 26.3335 42.7144Z" fill="#A259FF"/>
<path d="M26.3335 25.3335C26.3335 20.5339 30.2244 16.6431 35.024 16.6431H43.7145V34.024H35.024C30.2244 34.024 26.3335 30.1332 26.3335 25.3335Z" fill="#F24E1E"/>
<path d="M43.7144 16.6431H52.4048C57.2045 16.6431 61.0953 20.5339 61.0953 25.3335C61.0953 30.1332 57.2045 34.024 52.4048 34.024H43.7144V16.6431Z" fill="#FF7262"/>
<path d="M61.0953 42.7144C61.0953 47.514 57.2045 51.4049 52.4048 51.4049C47.6052 51.4049 43.7144 47.514 43.7144 42.7144C43.7144 37.9148 47.6052 34.0239 52.4048 34.0239C57.2045 34.0239 61.0953 37.9148 61.0953 42.7144Z" fill="#1ABCFE"/>
</g>
</g>
<defs>
<filter id="filter0_d_747_4746" x="0" y="0.0429688" width="91.4287" height="89.3428" filterUnits="userSpaceOnUse" color-interpolation-filters="sRGB">
<feFlood flood-opacity="0" result="BackgroundImageFix"/>
<feColorMatrix in="SourceAlpha" type="matrix" values="0 0 0 0 0 0 0 0 0 0 0 0 0 0 0 0 0 0 127 0" result="hardAlpha"/>
<feOffset dx="2" dy="2"/>
<feGaussianBlur stdDeviation="2"/>
<feComposite in2="hardAlpha" operator="out"/>
<feColorMatrix type="matrix" values="0 0 0 0 0 0 0 0 0 0 0 0 0 0 0 0 0 0 0.1 0"/>
<feBlend mode="normal" in2="BackgroundImageFix" result="effect1_dropShadow_747_4746"/>
<feBlend mode="normal" in="SourceGraphic" in2="effect1_dropShadow_747_4746" result="shape"/>
</filter>
<clipPath id="clip0_747_4746">
<rect x="2" y="2.04297" width="83.4286" height="81.3429" rx="40.6714" fill="white"/>
</clipPath>
</defs>
</svg>
