<svg width="93" height="89" viewBox="0 0 93 89" fill="none" xmlns="http://www.w3.org/2000/svg">
<g filter="url(#filter0_d_747_4749)">
<g clip-path="url(#clip0_747_4749)">
<path d="M17.4882 2.56446H71.3691C73.3098 2.56265 75.2317 2.93866 77.025 3.67095C78.8182 4.40325 80.4476 5.47746 81.8199 6.83211C83.1921 8.18675 84.2803 9.79524 85.0221 11.5655C85.7639 13.3358 86.1448 15.2331 86.1429 17.1489V68.2801C86.1448 70.1958 85.7639 72.0931 85.0221 73.8634C84.2803 75.6337 83.1921 77.2422 81.8199 78.5968C80.4476 79.9515 78.8182 81.0257 77.025 81.758C75.2317 82.4903 73.3098 82.8663 71.3691 82.8645H17.4882C15.5475 82.8663 13.6256 82.4903 11.8323 81.758C10.039 81.0257 8.40967 79.9515 7.03743 78.5968C5.66519 77.2422 4.57703 75.6337 3.83523 73.8634C3.09342 72.0931 2.71253 70.1958 2.71436 68.2801V17.1489C2.71253 15.2331 3.09342 13.3358 3.83523 11.5655C4.57703 9.79524 5.66519 8.18675 7.03743 6.83211C8.40967 5.47746 10.039 4.40325 11.8323 3.67095C13.6256 2.93866 15.5475 2.56265 17.4882 2.56446Z" fill="#E74035"/>
<path d="M69.8049 49.0632C65.9464 45.0139 55.2745 46.661 52.7716 47.0728C49.981 44.3181 47.5836 41.201 45.6454 37.8074C47.0706 33.9019 47.8909 29.8066 48.0787 25.6595C48.0787 21.9533 46.584 17.9727 42.4125 17.9727C41.7021 17.9916 41.0079 18.187 40.3943 18.5409C39.7806 18.8948 39.2672 19.3957 38.9016 19.9973C37.1287 23.0171 37.824 29.2627 40.6744 35.5769C39.0059 40.2096 36.6073 46.9012 33.444 52.3232C29.1683 54.0047 20.0954 58.1227 19.2264 62.6867C19.0945 63.3481 19.1406 64.0321 19.3602 64.6704C19.5798 65.3087 19.9651 65.8789 20.4778 66.3242C21.492 67.208 22.8106 67.6746 24.1625 67.6283C29.6202 67.6283 35.0778 60.1473 38.7625 53.7302C43.0081 52.3002 47.3531 51.1762 51.7635 50.3672C57.534 55.343 62.6787 56.098 65.2859 56.098C68.8316 56.098 70.1525 54.5881 70.6392 53.3184C70.8958 52.5999 70.9537 51.8269 70.8071 51.079C70.6604 50.3311 70.3145 49.6353 69.8049 49.0632ZM66.0506 51.6712C65.8768 52.6664 64.5906 53.6615 62.1921 53.1468C59.4137 52.4591 56.8251 51.1696 54.614 49.372C56.4911 49.0632 60.8711 48.6514 63.9649 49.2347C65.0773 49.4406 66.3635 50.0583 66.0506 51.6712ZM41.1611 21.3013C41.275 21.078 41.4486 20.8897 41.663 20.7567C41.8774 20.6236 42.1246 20.5509 42.3778 20.5464C43.6987 20.5464 43.9768 22.1249 43.9768 23.4289C43.7605 26.5394 43.1772 29.6144 42.2387 32.5914C40.014 26.7576 40.3268 22.7083 41.1611 21.3013ZM40.8483 49.8181C42.1362 47.1556 43.2849 44.4296 44.2897 41.6509C45.6787 43.8215 47.2609 45.8657 49.0173 47.7591C46.2588 48.3 43.5318 48.9873 40.8483 49.8181ZM32.123 55.7205C28.6121 61.2797 25.1706 64.78 23.1544 64.78C22.8262 64.7826 22.507 64.6736 22.2506 64.4712C22.0633 64.3218 21.9218 64.1239 21.842 63.8997C21.7622 63.6754 21.7472 63.4336 21.7987 63.2015C22.1811 61.2111 26.1787 58.3286 32.123 55.7205Z" fill="white"/>
</g>
</g>
<defs>
<filter id="filter0_d_747_4749" x="0.714355" y="0.564453" width="91.4287" height="88.2998" filterUnits="userSpaceOnUse" color-interpolation-filters="sRGB">
<feFlood flood-opacity="0" result="BackgroundImageFix"/>
<feColorMatrix in="SourceAlpha" type="matrix" values="0 0 0 0 0 0 0 0 0 0 0 0 0 0 0 0 0 0 127 0" result="hardAlpha"/>
<feOffset dx="2" dy="2"/>
<feGaussianBlur stdDeviation="2"/>
<feComposite in2="hardAlpha" operator="out"/>
<feColorMatrix type="matrix" values="0 0 0 0 0 0 0 0 0 0 0 0 0 0 0 0 0 0 0.1 0"/>
<feBlend mode="normal" in2="BackgroundImageFix" result="effect1_dropShadow_747_4749"/>
<feBlend mode="normal" in="SourceGraphic" in2="effect1_dropShadow_747_4749" result="shape"/>
</filter>
<clipPath id="clip0_747_4749">
<rect x="2.71436" y="2.56445" width="83.4286" height="80.3" rx="40.15" fill="white"/>
</clipPath>
</defs>
</svg>
