<svg width="92" height="92" viewBox="0 0 92 92" fill="none" xmlns="http://www.w3.org/2000/svg">
<g filter="url(#filter0_d_747_4846)">
<g clip-path="url(#clip0_747_4846)">
<path d="M17.0595 2.00001H70.9404C72.8811 1.99813 74.803 2.38878 76.5963 3.14961C78.3895 3.91044 80.0189 5.0265 81.3912 6.43392C82.7634 7.84135 83.8516 9.51251 84.5934 11.3518C85.3352 13.191 85.7161 15.1622 85.7142 17.1526V70.276C85.7161 72.2664 85.3352 74.2376 84.5934 76.0768C83.8516 77.9161 82.7634 79.5872 81.3912 80.9947C80.0189 82.4021 78.3895 83.5182 76.5963 84.279C74.803 85.0398 72.8811 85.4305 70.9404 85.4286H17.0595C15.1188 85.4305 13.1969 85.0398 11.4036 84.279C9.61034 83.5182 7.98096 82.4021 6.60872 80.9947C5.23648 79.5872 4.14832 77.9161 3.40652 76.0768C2.66471 74.2376 2.28382 72.2664 2.28565 70.276V17.1526C2.28382 15.1622 2.66471 13.191 3.40652 11.3518C4.14832 9.51251 5.23648 7.84135 6.60872 6.43392C7.98096 5.0265 9.61034 3.91044 11.4036 3.14961C13.1969 2.38878 15.1188 1.99813 17.0595 2.00001Z" fill="#00005B"/>
<path d="M35.796 51.9147H22.8645L20.2226 60.3288C20.1931 60.4815 20.109 60.6174 19.9868 60.7098C19.8646 60.8021 19.7131 60.8443 19.5621 60.828H13.0269C12.6445 60.828 12.5402 60.6141 12.6445 60.1862L23.8379 27.2783C23.9421 26.9217 24.0464 26.6009 24.1855 26.173C24.3254 25.4089 24.3952 24.633 24.3941 23.8556C24.3836 23.7663 24.4065 23.6762 24.4581 23.6035C24.5097 23.5308 24.5861 23.4807 24.6721 23.4634H33.6755C33.9188 23.4634 34.0926 23.5703 34.1274 23.7486L46.8155 60.2932C46.9198 60.6854 46.8155 60.8636 46.4679 60.8636H39.2026C39.0798 60.8758 38.9566 60.8431 38.8549 60.7714C38.7532 60.6996 38.6794 60.5935 38.6464 60.4714L35.796 51.9147ZM24.8807 44.8197H33.7102C33.5017 44.0709 33.2236 43.1796 32.9107 42.2526C32.5979 41.3257 32.285 40.2561 31.9721 39.1865C31.6593 38.1169 31.3117 37.0116 30.9641 35.9064C30.6164 34.8011 30.3036 33.7672 30.0255 32.7332C29.7474 31.6993 29.5041 30.8079 29.2607 29.9523H29.1912C28.8788 31.5062 28.4842 33.0415 28.0093 34.5515C27.4879 36.2629 26.9664 38.0456 26.4102 39.8282C25.9583 41.6465 25.4021 43.3222 24.8807 44.8197Z" fill="#9999FF"/>
<path d="M67.4294 48.6345H56.4099C56.5414 49.7596 56.909 50.8422 57.4875 51.8076C58.1018 52.7686 58.987 53.5148 60.0251 53.9468C61.4302 54.5631 62.9467 54.8669 64.4746 54.8381C65.6885 54.8153 66.8982 54.6841 68.0899 54.446C69.15 54.3036 70.189 54.0282 71.1837 53.6259C71.3575 53.4833 71.4618 53.5546 71.4618 53.9112V59.3661C71.4557 59.5111 71.4323 59.6548 71.3922 59.7939C71.3294 59.894 71.2464 59.9791 71.1489 60.0435C70.0371 60.5443 68.8697 60.9035 67.6727 61.1131C66.0466 61.4338 64.392 61.5772 62.7365 61.541C60.0946 61.541 57.8699 61.1131 56.0622 60.2931C54.3613 59.5359 52.86 58.375 51.6822 56.906C50.5816 55.5325 49.7655 53.9433 49.2837 52.2355C48.2651 48.6785 48.3135 44.8895 49.4227 41.3612C49.9771 39.5761 50.8623 37.9176 52.0299 36.4767C53.1794 35.052 54.6138 33.8969 56.236 33.0897C57.8699 32.2696 59.8165 31.9844 62.0413 31.9844C63.8949 31.9403 65.7349 32.3178 67.4294 33.0897C68.8535 33.7229 70.1061 34.7018 71.0794 35.9419C72.0034 37.1597 72.7096 38.5358 73.1651 40.0064C73.6072 41.4116 73.8301 42.8796 73.8256 44.3561C73.8256 45.2118 73.7908 45.9605 73.7561 46.6379C73.7213 47.3153 73.6518 47.8145 73.617 48.1353C73.6017 48.2588 73.5446 48.3729 73.4556 48.4576C73.3667 48.5423 73.2516 48.5923 73.1303 48.5988C72.9218 48.5988 72.5394 48.6345 71.9832 48.6701C71.3139 48.7481 70.6406 48.7838 69.967 48.7771C69.1675 48.7771 68.3332 48.6345 67.4294 48.6345ZM56.4099 43.4291H63.7446C64.6484 43.4291 65.3089 43.4291 65.7261 43.3935C66.0117 43.3691 66.2868 43.2709 66.5256 43.1082V42.7517C66.527 42.3032 66.4565 41.8576 66.317 41.4325C66.0127 40.457 65.4073 39.6094 64.5921 39.0177C63.7769 38.426 62.7962 38.1223 61.798 38.1524C60.8545 38.0982 59.916 38.3252 59.0956 38.806C58.2752 39.2868 57.608 40.0009 57.1746 40.8621C56.7691 41.6627 56.5099 42.5327 56.4099 43.4291Z" fill="#9999FF"/>
</g>
</g>
<defs>
<filter id="filter0_d_747_4846" x="0.285645" y="0" width="91.4287" height="91.4287" filterUnits="userSpaceOnUse" color-interpolation-filters="sRGB">
<feFlood flood-opacity="0" result="BackgroundImageFix"/>
<feColorMatrix in="SourceAlpha" type="matrix" values="0 0 0 0 0 0 0 0 0 0 0 0 0 0 0 0 0 0 127 0" result="hardAlpha"/>
<feOffset dx="2" dy="2"/>
<feGaussianBlur stdDeviation="2"/>
<feComposite in2="hardAlpha" operator="out"/>
<feColorMatrix type="matrix" values="0 0 0 0 0 0 0 0 0 0 0 0 0 0 0 0 0 0 0.1 0"/>
<feBlend mode="normal" in2="BackgroundImageFix" result="effect1_dropShadow_747_4846"/>
<feBlend mode="normal" in="SourceGraphic" in2="effect1_dropShadow_747_4846" result="shape"/>
</filter>
<clipPath id="clip0_747_4846">
<rect x="2.28564" y="2" width="83.4286" height="83.4286" rx="41.7143" fill="white"/>
</clipPath>
</defs>
</svg>
