<svg width="92" height="90" viewBox="0 0 92 90" fill="none" xmlns="http://www.w3.org/2000/svg">
<g filter="url(#filter0_d_747_4750)">
<g clip-path="url(#clip0_747_4750)">
<path d="M16.9169 2.04298H70.7978C72.7385 2.04115 74.6604 2.42203 76.4537 3.16384C78.247 3.90564 79.8763 4.99381 81.2486 6.36604C82.6208 7.73828 83.709 9.36766 84.4508 11.1609C85.1926 12.9542 85.5735 14.8761 85.5716 16.8168V68.612C85.5735 70.5527 85.1926 72.4746 84.4508 74.2679C83.709 76.0611 82.6208 77.6905 81.2486 79.0628C79.8763 80.435 78.247 81.5232 76.4537 82.265C74.6604 83.0068 72.7385 83.3877 70.7978 83.3858H16.9169C14.9762 83.3877 13.0543 83.0068 11.261 82.265C9.46776 81.5232 7.83838 80.435 6.46614 79.0628C5.0939 77.6905 4.00574 76.0611 3.26394 74.2679C2.52213 72.4746 2.14124 70.5527 2.14307 68.612V16.8168C2.14124 14.8761 2.52213 12.9542 3.26394 11.1609C4.00574 9.36766 5.0939 7.73828 6.46614 6.36604C7.83838 4.99381 9.46776 3.90564 11.261 3.16384C13.0543 2.42203 14.9762 2.04115 16.9169 2.04298Z" fill="#FADE01"/>
<path d="M47.6478 52.3758C49.4221 51.3707 51.5868 52.0521 53.1478 53.3641C54.5126 54.5112 56.2294 55.2211 58.5528 55.2211C61.8012 55.2211 63.8763 53.6382 63.8763 51.451C63.8763 48.8299 61.7443 47.9016 58.1688 46.3767L56.2089 45.5568C50.5516 43.2069 46.7933 40.2631 46.7933 34.0397C46.7933 28.307 51.2733 23.9429 58.2747 23.9429C62.041 23.9429 65.0074 24.9085 67.3464 27.2911C68.7023 28.6722 68.1218 30.8788 66.4812 31.9058C64.7561 32.9858 62.6171 32.1427 60.8237 31.1803C60.0883 30.7857 59.2579 30.6091 58.2747 30.6091C55.9784 30.6091 54.5231 32.0294 54.5231 33.8848C54.5231 36.1779 55.9798 37.1062 59.3434 38.5265L61.3033 39.3451C67.9643 42.1301 71.7252 44.9694 71.7252 51.3528C71.7252 58.2347 66.1806 62.0049 58.7342 62.0049C53.2184 62.0049 49.1816 60.0633 46.5478 57.1941C45.1599 55.6822 45.862 53.3873 47.6478 52.3758ZM19.7886 53.2111C21.6262 52.1264 23.7581 53.0101 25.4534 54.306C26.1602 54.8463 27.0224 55.1734 28.1702 55.1734C30.7459 55.1734 32.3708 54.1908 32.3708 50.3703V28.2991C32.3708 26.1342 34.1258 24.3793 36.2906 24.3793C38.4555 24.3793 40.2104 26.1342 40.2104 28.2991V50.4736C40.2104 58.3883 35.451 61.9907 28.5039 61.9907C23.9492 61.9907 20.7855 60.3231 18.686 57.9505C17.3618 56.454 18.0678 54.2269 19.7886 53.2111Z" fill="black"/>
</g>
</g>
<defs>
<filter id="filter0_d_747_4750" x="0.143066" y="0.0429688" width="91.4287" height="89.3428" filterUnits="userSpaceOnUse" color-interpolation-filters="sRGB">
<feFlood flood-opacity="0" result="BackgroundImageFix"/>
<feColorMatrix in="SourceAlpha" type="matrix" values="0 0 0 0 0 0 0 0 0 0 0 0 0 0 0 0 0 0 127 0" result="hardAlpha"/>
<feOffset dx="2" dy="2"/>
<feGaussianBlur stdDeviation="2"/>
<feComposite in2="hardAlpha" operator="out"/>
<feColorMatrix type="matrix" values="0 0 0 0 0 0 0 0 0 0 0 0 0 0 0 0 0 0 0.1 0"/>
<feBlend mode="normal" in2="BackgroundImageFix" result="effect1_dropShadow_747_4750"/>
<feBlend mode="normal" in="SourceGraphic" in2="effect1_dropShadow_747_4750" result="shape"/>
</filter>
<clipPath id="clip0_747_4750">
<rect x="2.14307" y="2.04297" width="83.4286" height="81.3429" rx="40.6714" fill="white"/>
</clipPath>
</defs>
</svg>
