<svg width="100" height="34" viewBox="0 0 100 34" fill="none" xmlns="http://www.w3.org/2000/svg">
<g clip-path="url(#clip0_747_4717)">
<path d="M47.1835 0.912598V3.20829H43.0108V14.5657H41.1841C40.6957 14.5657 40.2998 14.1455 40.2998 13.6275V3.20829H36.1069V0.912598H47.1826H47.1835Z" fill="#242A29"/>
<path d="M52.0596 0.912598V14.5657H50.2329C49.7445 14.5657 49.3486 14.1455 49.3486 13.6275V0.912598H52.0587H52.0596Z" fill="#242A29"/>
<path d="M66.1366 10.596C65.7589 11.934 65.0936 12.93 64.1378 13.5852C63.182 14.2403 62.0612 14.5679 60.774 14.5679C59.4868 14.5679 58.4698 14.2857 57.5663 13.7196C56.6624 13.1544 55.9636 12.3479 55.4701 11.2993C54.9761 10.2516 54.7295 8.99648 54.7295 7.53395C54.7295 6.07145 54.9761 4.81721 55.4701 3.76862C55.9645 2.72092 56.6624 1.91355 57.5663 1.34831C58.4698 0.783067 59.5322 0.5 60.7547 0.5C61.6132 0.5 62.3927 0.630852 63.0948 0.893447C63.7971 1.15604 64.3945 1.5486 64.8888 2.07289C65.3829 2.59719 65.7405 3.27281 65.9612 4.10066L63.5236 5.17595C63.3289 4.3214 63.0066 3.71789 62.5586 3.36628C62.1105 3.01467 61.5476 2.83842 60.8722 2.83842C60.1969 2.83842 59.5885 3.01734 59.0882 3.37607C58.5874 3.73481 58.2013 4.26266 57.928 4.95875C57.6553 5.65574 57.5185 6.51383 57.5185 7.53395C57.5185 8.55407 57.6485 9.39257 57.9087 10.0887C58.1687 10.7856 58.5488 11.3162 59.0497 11.6811C59.5497 12.047 60.1514 12.2295 60.8538 12.2295C61.5559 12.2295 62.1307 12.0301 62.6182 11.6295C62.9188 11.3838 63.1604 11.0563 63.3449 10.6486C63.5589 10.1741 64.0598 9.92846 64.5339 10.0807L66.1381 10.5952L66.1366 10.596Z" fill="#242A29"/>
<path d="M77.5719 14.5659C76.571 14.5659 75.6968 14.3558 74.949 13.9348C74.2015 13.5146 73.6199 12.9004 73.2039 12.0939C72.7876 11.2875 72.5796 10.3181 72.5796 9.18761C72.5796 8.05712 72.7876 7.08776 73.2039 6.2813C73.6199 5.47481 74.1915 4.86062 74.9196 4.44047C75.6472 4.02032 76.4861 3.80933 77.4351 3.80933C78.3843 3.80933 79.2191 4.01942 79.9021 4.44047C80.5843 4.86149 81.1078 5.43743 81.4719 6.16823C81.8363 6.89906 82.0182 7.73402 82.0182 8.67134C82.0182 8.91968 82.0116 9.15113 81.9989 9.36476C81.9855 9.57839 81.9662 9.76178 81.9401 9.9131H74.3357V8.21648H80.7511L79.4449 8.6927C79.4449 8.09987 79.3668 7.59605 79.2108 7.18301C79.0547 6.7691 78.8274 6.45221 78.5286 6.23144C78.2288 6.01067 77.8656 5.9003 77.4369 5.9003C76.9562 5.9003 76.5434 6.02402 76.1983 6.27239C75.8535 6.52073 75.5944 6.89015 75.4182 7.37885C75.2428 7.86842 75.1547 8.48528 75.1547 9.23036C75.1547 9.97541 75.252 10.5682 75.4475 11.0507C75.6422 11.5341 75.9214 11.8919 76.2858 12.126C76.6499 12.361 77.0787 12.4776 77.5728 12.4776C78.1057 12.4776 78.5446 12.3574 78.8894 12.1153C79.0538 11.9996 79.1998 11.8634 79.3274 11.705C79.5974 11.3703 80.0398 11.2581 80.4274 11.4148L81.8235 11.98C81.6288 12.5319 81.3194 13.001 80.8971 13.3864C80.4742 13.7728 79.9775 14.0656 79.4054 14.2659C78.833 14.4653 78.2223 14.5659 77.5719 14.5659Z" fill="#242A29"/>
<path d="M84.2036 13.6237V4.2371C84.2036 4.22642 84.211 4.21841 84.2211 4.21841H86.5849C86.5941 4.21841 86.6015 4.22642 86.6024 4.2362L86.6956 6.06992C86.6965 6.08948 86.7208 6.09395 86.7291 6.07703C87.0395 5.40587 87.471 4.89671 88.0256 4.54955C88.5977 4.19081 89.228 4.01189 89.9167 4.01189C90.6057 4.01189 91.2526 4.18457 91.8182 4.52906C92.3728 4.86731 92.7805 5.37737 93.0413 6.06101C93.0472 6.07613 93.0665 6.07703 93.0734 6.06101C93.2671 5.60969 93.5306 5.23316 93.8653 4.93229C94.2095 4.62164 94.5995 4.39109 95.0351 4.23887C95.4707 4.08755 95.9093 4.01099 96.3517 4.01099C96.9885 4.01099 97.5606 4.14896 98.0674 4.42493C98.5742 4.70087 98.9837 5.11478 99.2959 5.66579C99.6081 6.21767 99.7641 6.91376 99.7641 7.75496V14.5423C99.7641 14.553 99.7564 14.561 99.7463 14.561H97.9576C97.4692 14.561 97.073 14.1409 97.073 13.6228V8.33444C97.073 7.58939 96.917 7.0553 96.6051 6.7313C96.2929 6.40727 95.8959 6.24527 95.4152 6.24527C95.025 6.24527 94.6742 6.34853 94.3621 6.55592C94.0499 6.76244 93.8001 7.06955 93.611 7.47635C93.4223 7.88315 93.3285 8.37629 93.3285 8.95577V14.5432C93.3285 14.5539 93.3208 14.5619 93.3107 14.5619H91.522C91.0336 14.5619 90.6374 14.1418 90.6374 13.6237V8.33534C90.6374 7.59029 90.4814 7.0562 90.1692 6.73217C89.857 6.40817 89.4671 6.24617 88.9998 6.24617C88.649 6.24617 88.3107 6.34319 87.9861 6.53546C87.6612 6.72863 87.398 7.03217 87.1965 7.44608C86.995 7.85999 86.8944 8.39765 86.8944 9.05993V14.5441C86.8944 14.5548 86.8867 14.5628 86.8769 14.5628H85.0879C84.5995 14.5628 84.2036 14.1427 84.2036 13.6246V13.6237Z" fill="#242A29"/>
<path d="M46.0084 22.8699V24.9796H38.5986V22.8699H46.0084ZM42.9862 19.7046V29.7998C42.9862 30.324 43.1028 30.7033 43.3369 30.9373C43.571 31.1725 43.8957 31.2889 44.312 31.2889C44.6242 31.2889 44.8968 31.2373 45.131 31.1341C45.3648 31.0309 45.5796 30.8965 45.7743 30.7309L46.0488 32.0428C46.1227 32.3944 45.9648 32.7586 45.6612 32.9188C45.4639 33.0229 45.2482 33.1138 45.0135 33.1921C44.5577 33.3433 44.0838 33.4201 43.5903 33.4201C42.6019 33.4201 41.809 33.1822 41.2114 32.7061C40.6132 32.23 40.3147 31.4197 40.3147 30.2751V20.4906L42.9862 19.7046Z" fill="#242A29"/>
<path d="M47.7583 32.4839V23.0785H50.1179L50.2547 25.1677C50.4889 24.4369 50.8494 23.8716 51.3369 23.4711C51.8245 23.0714 52.4254 22.8711 53.1411 22.8711C53.3616 22.8711 53.5607 22.8916 53.736 22.9334C53.9114 22.9753 54.0574 23.0304 54.1746 23.099L53.8627 25.4988C53.7586 25.4436 53.6126 25.3991 53.4239 25.3644C53.2349 25.3306 52.9975 25.3128 52.7123 25.3128C52.3221 25.3128 51.9544 25.416 51.6105 25.6234C51.2657 25.83 50.9862 26.137 50.7722 26.5438C50.5574 26.9506 50.4509 27.458 50.4509 28.0642V33.422H48.6444C48.1562 33.422 47.7601 33.002 47.7601 32.4839H47.7583Z" fill="#242A29"/>
<path d="M57.1194 21.6605C57.9532 21.6605 58.6289 20.9436 58.6289 20.0591C58.6289 19.1747 57.9532 18.4578 57.1194 18.4578C56.2858 18.4578 55.6099 19.1747 55.6099 20.0591C55.6099 20.9436 56.2858 21.6605 57.1194 21.6605Z" fill="#242A29"/>
<path d="M58.4633 23.0796V33.4231H56.6567C56.1686 33.4231 55.7725 33.0031 55.7725 32.485V23.0796H58.4633Z" fill="#242A29"/>
<path d="M63.8695 18.3618V30.0085C63.8695 30.45 63.9342 30.7812 64.0642 31.002C64.1944 31.2228 64.441 31.3332 64.8051 31.3332C64.9998 31.3332 65.166 31.3197 65.3027 31.2921C65.4395 31.2645 65.598 31.2093 65.7802 31.1265L65.6333 32.5302C65.6007 32.8392 65.4019 33.1008 65.1223 33.1962C65.0131 33.2334 64.8941 33.2673 64.7665 33.2994C64.4283 33.3822 64.1096 33.423 63.8108 33.423C62.8099 33.423 62.1208 33.1473 61.7443 32.5953C61.3665 32.0442 61.1787 31.2849 61.1787 30.3201V18.3618H63.8695Z" fill="#242A29"/>
<path d="M67.2432 32.4876V18.5728H69.9343V24.9026C70.2328 24.227 70.6491 23.7205 71.1817 23.3822C71.7147 23.0449 72.3257 22.8757 73.0153 22.8757C73.7049 22.8757 74.263 23.0137 74.7705 23.2897C75.2773 23.5656 75.6776 23.9831 75.9696 24.5412C76.2625 25.0993 76.4084 25.7927 76.4084 26.6206V33.4266H74.6019C74.1135 33.4266 73.7176 33.0066 73.7176 32.4885V27.427C73.7176 26.5725 73.5616 25.969 73.2494 25.6174C72.9372 25.2658 72.5346 25.0895 72.0402 25.0895C71.6895 25.0895 71.3515 25.1866 71.0265 25.3788C70.7019 25.572 70.4384 25.8791 70.2369 26.2992C70.0357 26.7203 69.9352 27.2686 69.9352 27.9442V33.4266H68.1286C67.6402 33.4266 67.2441 33.0066 67.2441 32.4885L67.2432 32.4876Z" fill="#242A29"/>
<path d="M84.4967 26.5995C84.4967 26.02 84.3507 25.5615 84.0578 25.2242C83.765 24.8868 83.3656 24.7177 82.8587 24.7177C82.3519 24.7177 81.9424 24.8485 81.5908 25.1111C81.24 25.3737 80.9866 25.8143 80.8305 26.4348L78.5685 25.7111C78.7765 24.7871 79.2507 24.0492 79.9917 23.4973C80.7326 22.9463 81.7335 22.6694 82.9946 22.6694C83.8531 22.6694 84.594 22.811 85.2172 23.0932C85.8415 23.3762 86.3258 23.7999 86.6697 24.3652C87.0139 24.9304 87.1866 25.6345 87.1866 26.4748V30.6745C87.1866 31.2121 87.4139 31.4809 87.8688 31.4809C87.973 31.4809 88.0801 31.474 88.1902 31.4605C88.3 31.4473 88.3949 31.4257 88.473 31.3981L88.3623 32.6275C88.3311 32.9701 88.0952 33.2569 87.7765 33.3208C87.7748 33.3208 87.7724 33.3208 87.7706 33.3217C87.5626 33.3628 87.3216 33.3841 87.0489 33.3841C86.6068 33.3841 86.2074 33.3049 85.8501 33.1465C85.4926 32.9881 85.213 32.7397 85.0118 32.4013C84.8104 32.0641 84.7098 31.6324 84.7098 31.1089V30.9433L85.0807 30.8605C85.0285 31.4257 84.8338 31.9021 84.4958 32.2885C84.1575 32.6746 83.7415 32.9605 83.248 33.1465C82.7537 33.3325 82.2344 33.4261 81.6881 33.4261C80.7519 33.4261 79.9881 33.1849 79.3967 32.7022C78.805 32.2198 78.5098 31.5166 78.5098 30.5926C78.5098 29.8618 78.7246 29.2477 79.1534 28.7518C79.5822 28.2551 80.2383 27.9106 81.1225 27.7175L84.7887 26.8896V28.5649L82.5457 29.0616C82.1035 29.1586 81.7653 29.3028 81.532 29.496C81.2979 29.6892 81.1813 29.9713 81.1813 30.3443C81.1813 30.7174 81.3015 30.979 81.5421 31.1722C81.7831 31.3654 82.0911 31.4614 82.4685 31.4614C82.7288 31.4614 82.9822 31.4239 83.2288 31.3474C83.4753 31.2718 83.6934 31.1482 83.8825 30.9754C84.0703 30.8026 84.2205 30.589 84.3311 30.3345C84.4412 30.0799 84.4973 29.7728 84.4973 29.4141V26.6003L84.4967 26.5995Z" fill="#242A29"/>
<path d="M93.7619 33.4209C92.813 33.4209 91.942 33.2376 91.1492 32.8725C90.648 32.6421 90.2049 32.3466 89.8183 31.9869C89.4314 31.6272 89.4263 31.0317 89.7646 30.6489L90.6222 29.677C90.9207 30.2013 91.3403 30.6213 91.8797 30.9393C92.4195 31.257 93.0269 31.4145 93.7032 31.4145C94.1714 31.4145 94.5581 31.3212 94.8637 31.1349C95.1691 30.9489 95.3219 30.69 95.3219 30.3588C95.3219 30.1247 95.2503 29.9244 95.107 29.7589C94.9634 29.5933 94.6783 29.4624 94.2486 29.3654L92.6492 29.0138C91.5308 28.7521 90.7379 28.3729 90.2705 27.8762C89.8023 27.3795 89.5682 26.7315 89.5682 25.9312C89.5682 25.366 89.7275 24.8381 90.0456 24.3485C90.3637 23.859 90.8385 23.4557 91.4688 23.1388C92.0987 22.8219 92.8759 22.6626 93.7987 22.6626C94.7219 22.6626 95.596 22.8353 96.3044 23.1798C97.0124 23.5243 97.5619 24.0076 97.9521 24.628L96.5293 26.1796C96.2566 25.6829 95.8756 25.3072 95.388 25.0518C94.9005 24.7963 94.4097 24.669 93.9153 24.669C93.5512 24.669 93.2459 24.7135 92.9993 24.8034C92.7524 24.8933 92.5637 25.017 92.4337 25.1755C92.3035 25.3339 92.2391 25.5235 92.2391 25.7443C92.2391 25.9793 92.3296 26.1858 92.5118 26.3647C92.6937 26.5445 93.0058 26.6825 93.4471 26.7787L95.378 27.1926C96.3269 27.3991 97.0064 27.7444 97.4159 28.2269C97.8254 28.7103 98.0302 29.296 98.0302 29.985C98.0302 30.9774 97.6661 31.7982 96.9385 32.4471C96.2103 33.0951 95.1515 33.4191 93.7601 33.4191L93.7619 33.4209Z" fill="#242A29"/>
<path d="M3.44294 12.6528C3.9321 12.7552 4.38018 12.5495 4.65204 12.1872C4.82489 11.9567 5.0875 11.825 5.36525 11.825H8.66195C8.93967 11.825 9.20231 11.9576 9.37516 12.1882C9.64703 12.5504 10.0942 12.7561 10.5834 12.6537C11.0642 12.5531 11.4535 12.1321 11.5416 11.6211C11.6843 10.7924 11.0877 10.0696 10.3325 10.0696C9.94741 10.0696 9.60673 10.2583 9.3827 10.5529C9.19896 10.7933 8.93549 10.9491 8.6435 10.9491H5.38371C5.09172 10.9491 4.82825 10.7942 4.64448 10.5529C4.42044 10.2583 4.07896 10.0696 3.69466 10.0696C2.93949 10.0696 2.34291 10.7924 2.48555 11.6211C2.57366 12.1321 2.96382 12.5531 3.44377 12.6537L3.44294 12.6528Z" fill="#242A29"/>
<path d="M22.7921 9.67705C23.4717 9.67705 24.0222 9.09313 24.0222 8.37211C24.0222 7.65109 23.4709 7.06714 22.7921 7.06714C22.1133 7.06714 21.562 7.65196 21.562 8.37211C21.562 9.09223 22.1133 9.67705 22.7921 9.67705Z" fill="#242A29"/>
<path d="M25.7006 18.0681C25.2148 17.9719 24.7726 18.1802 24.5041 18.5425C24.3229 18.7873 24.0619 18.9502 23.7691 18.9502H16.0874C15.7316 18.9502 15.422 18.725 15.2559 18.3912C14.9311 17.7396 14.2868 17.2954 13.5442 17.2954C12.8016 17.2954 12.1572 17.7396 11.8325 18.3912C11.6663 18.725 11.3567 18.9502 11.0009 18.9502H9.24898C8.95194 18.9502 8.68426 18.7891 8.50135 18.5416C8.27731 18.2398 7.93248 18.0449 7.54147 18.0449C7.15046 18.0449 6.80559 18.2398 6.58156 18.5416C6.39782 18.7891 6.13099 18.9502 5.83396 18.9502H3.54915C3.25547 18.9502 2.99538 18.7873 2.81414 18.5425C2.54647 18.1802 2.10344 17.9728 1.61762 18.0681C1.13012 18.1642 0.731563 18.5888 0.644302 19.1068C0.503337 19.9347 1.09908 20.6548 1.8534 20.6548C2.22679 20.6548 2.56074 20.4777 2.78561 20.1982C2.96853 19.9712 3.22527 19.8261 3.50719 19.8261H5.88764C6.16957 19.8261 6.42633 19.9703 6.60924 20.1973C6.83411 20.4768 7.16809 20.6539 7.54147 20.6539C7.91485 20.6539 8.2488 20.4768 8.47366 20.1973C8.65657 19.9703 8.91334 19.8261 9.19527 19.8261H11.0454C11.3785 19.8261 11.6881 20.0148 11.8459 20.3255C12.1723 20.9664 12.8092 21.4034 13.5442 21.4034C14.2792 21.4034 14.916 20.9673 15.2424 20.3255C15.401 20.0148 15.7106 19.8261 16.0429 19.8261H23.811C24.093 19.8261 24.3497 19.9703 24.5326 20.1973C24.7575 20.4768 25.0914 20.6539 25.4649 20.6539C26.2192 20.6539 26.8149 19.9338 26.6748 19.106C26.5867 18.5879 26.1881 18.1633 25.7006 18.0672V18.0681Z" fill="#242A29"/>
<path d="M28.764 14.1556C28.2765 14.0505 27.8293 14.2508 27.5549 14.6087C27.3829 14.833 27.1237 14.9585 26.8518 14.9585H26.1831C25.9011 14.9585 25.6435 14.8134 25.4606 14.5855C25.2358 14.3051 24.9018 14.1271 24.5276 14.1271C24.1534 14.1271 23.8194 14.3051 23.5945 14.5855C23.4116 14.8134 23.154 14.9585 22.8721 14.9585H22.4526C22.0951 14.9585 21.7687 14.7395 21.621 14.395C21.2493 13.5307 20.4279 12.929 19.4739 12.929C18.5198 12.929 17.6984 13.5298 17.3267 14.395C17.1782 14.7395 16.8526 14.9585 16.4952 14.9585H15.8365C15.5646 14.9585 15.3045 14.8321 15.1334 14.6087C14.859 14.2508 14.4109 14.0505 13.9234 14.1556C13.4468 14.2588 13.0608 14.6772 12.9736 15.1855C12.8301 16.0151 13.4267 16.7379 14.1827 16.7379C14.5729 16.7379 14.9177 16.5438 15.1417 16.2421C15.3255 15.9946 15.5923 15.8344 15.8885 15.8344H16.465C16.8409 15.8344 17.1664 16.0819 17.3183 16.4459C17.685 17.3227 18.5106 17.9351 19.4739 17.9351C20.4371 17.9351 21.2628 17.3227 21.6294 16.4459C21.7813 16.0819 22.1069 15.8344 22.4828 15.8344H22.8218C23.1179 15.8344 23.3856 15.9946 23.5685 16.2421C23.7926 16.5438 24.1374 16.7379 24.5276 16.7379C24.9178 16.7379 25.2626 16.5438 25.4866 16.2421C25.6704 15.9946 25.9372 15.8344 26.2334 15.8344H26.7998C27.096 15.8344 27.3636 15.9946 27.5466 16.2421C27.7706 16.5438 28.1154 16.7379 28.5056 16.7379C29.2616 16.7379 29.8583 16.0142 29.7137 15.1846C29.6258 14.6772 29.2406 14.258 28.7632 14.1556H28.764Z" fill="#242A29"/>
<path d="M2.94495 15.82H7.46588C7.82246 15.82 8.13291 16.0452 8.29822 16.3798C8.65484 17.1053 9.40748 17.5762 10.2524 17.4685C10.9992 17.3733 11.6369 16.7929 11.8609 16.0309C11.97 15.6597 11.9717 15.3072 11.9004 14.985C11.8223 14.6325 11.9096 14.2631 12.1588 14.0165L13.2764 12.9065C13.4803 12.7036 13.7606 12.6332 14.0383 12.6706C14.0853 12.6769 14.1331 12.6804 14.1818 12.6804C14.561 12.6804 14.8983 12.497 15.1232 12.2104C15.3061 11.9763 15.5671 11.8258 15.854 11.8258H23.2496C23.5273 11.8258 23.79 11.9585 23.9628 12.1882C24.2347 12.5504 24.6819 12.757 25.1719 12.6537C25.6527 12.5531 26.042 12.1321 26.1301 11.6211C26.2728 10.7924 25.6762 10.0696 24.921 10.0696C24.5359 10.0696 24.1953 10.2583 23.9712 10.5529C23.7874 10.7933 23.524 10.9491 23.232 10.9491H15.8708C15.5864 10.9491 15.3204 10.8066 15.145 10.569C14.8824 10.212 14.4503 10.0046 13.9737 10.0883C13.5105 10.1693 13.1229 10.5476 12.9979 11.0274C12.955 11.1921 12.9442 11.3505 12.9584 11.5018C12.9861 11.7876 12.9089 12.0733 12.7109 12.2701L11.6579 13.3168C11.3944 13.5786 11.0168 13.64 10.6787 13.5056C10.4723 13.4237 10.2491 13.3774 10.015 13.3774C9.28246 13.3774 8.6481 13.8109 8.32003 14.4482C8.16145 14.7571 7.85267 14.9449 7.52125 14.9449H2.87615C2.6068 14.9449 2.34921 14.8221 2.17804 14.6014C1.90199 14.2462 1.45392 14.0485 0.967264 14.1554C0.49235 14.2595 0.108894 14.6779 0.0216306 15.1835C-0.122689 16.0131 0.474727 16.7368 1.23073 16.7368C1.62342 16.7368 1.97079 16.5401 2.19482 16.2348C2.37858 15.9846 2.64708 15.8217 2.94579 15.8217L2.94495 15.82Z" fill="#242A29"/>
<path d="M10.6315 21.1184C10.1406 21.017 9.69259 21.2253 9.42239 21.5902C9.24954 21.8243 8.9844 21.9596 8.705 21.9596H6.37574C6.09547 21.9596 5.83117 21.8243 5.65832 21.5902C5.38814 21.2253 4.9401 21.017 4.44924 21.1175C3.96678 21.2173 3.57491 21.6392 3.48681 22.1519C3.34503 22.9806 3.94075 23.7026 4.69592 23.7026C5.0777 23.7026 5.41752 23.5165 5.64156 23.2263C5.82446 22.9886 6.0871 22.8364 6.37657 22.8364H8.70331C8.9928 22.8364 9.25541 22.9895 9.43835 23.2263C9.66239 23.5174 10.0022 23.7026 10.384 23.7026C11.1391 23.7026 11.7349 22.9806 11.5931 22.1519C11.505 21.6392 11.1131 21.2173 10.6315 21.1175V21.1184Z" fill="#242A29"/>
<path d="M6.6024 9.65074C7.09326 9.75223 7.5405 9.54394 7.81068 9.17809C7.98353 8.94397 8.24866 8.80867 8.52807 8.80867H16.0302C16.3776 8.80867 16.6855 9.02143 16.8508 9.34633C17.2276 10.0869 18.0205 10.5542 18.8982 10.3931C19.6592 10.2534 20.2868 9.61693 20.4454 8.81491C20.7072 7.48681 19.759 6.31714 18.5533 6.31714C17.8199 6.31714 17.1831 6.74977 16.855 7.38799C16.6872 7.71469 16.3801 7.93366 16.0294 7.93366H8.53059C8.24112 7.93366 7.97848 7.78054 7.79557 7.54378C7.57154 7.25269 7.23172 7.06753 6.84994 7.06753C6.09477 7.06753 5.49818 7.78945 5.64083 8.61817C5.72893 9.1309 6.1208 9.55195 6.60326 9.65164L6.6024 9.65074Z" fill="#242A29"/>
<path d="M7.54015 24.1016C6.8605 24.1016 6.31006 24.6864 6.31006 25.4065C6.31006 26.1267 6.8605 26.7115 7.54015 26.7115C8.21979 26.7115 8.77021 26.1275 8.77021 25.4065C8.77021 24.6855 8.21896 24.1016 7.54015 24.1016Z" fill="#242A29"/>
</g>
<defs>
<clipPath id="clip0_747_4717">
<rect width="100" height="33" fill="white" transform="translate(0 0.5)"/>
</clipPath>
</defs>
</svg>
