<svg width="92" height="90" viewBox="0 0 92 90" fill="none" xmlns="http://www.w3.org/2000/svg">
<g filter="url(#filter0_d_747_4747)">
<g clip-path="url(#clip0_747_4747)">
<path d="M17.2025 2.04298H71.0835C73.0241 2.04115 74.9461 2.42203 76.7393 3.16384C78.5326 3.90564 80.162 4.9938 81.5342 6.36604C82.9064 7.73828 83.9946 9.36766 84.7364 11.1609C85.4782 12.9542 85.8591 14.8761 85.8573 16.8168V68.612C85.8591 70.5527 85.4782 72.4746 84.7364 74.2679C83.9946 76.0611 82.9064 77.6905 81.5342 79.0628C80.162 80.435 78.5326 81.5232 76.7393 82.265C74.9461 83.0068 73.0241 83.3876 71.0835 83.3858H17.2025C15.2619 83.3876 13.3399 83.0068 11.5467 82.265C9.7534 81.5232 8.12403 80.435 6.75179 79.0628C5.37955 77.6905 4.29139 76.0611 3.54958 74.2679C2.80778 72.4746 2.42689 70.5527 2.42872 68.612V16.8168C2.42689 14.8761 2.80778 12.9542 3.54958 11.1609C4.29139 9.36766 5.37955 7.73828 6.75179 6.36604C8.12403 4.9938 9.7534 3.90564 11.5467 3.16384C13.3399 2.42203 15.2619 2.04115 17.2025 2.04298Z" fill="#330000"/>
<path d="M42.857 50.849H29.9256L27.2837 59.0181C27.2541 59.167 27.17 59.2995 27.0478 59.3895C26.9256 59.4796 26.7741 59.5207 26.6232 59.5048H20.0879C19.7056 59.5048 19.6013 59.2962 19.7056 58.8791L30.8989 26.6548C31.0032 26.3072 31.1075 25.9248 31.2465 25.5076C31.3864 24.7626 31.4562 24.0061 31.4551 23.2481C31.4447 23.161 31.4675 23.0733 31.5191 23.0024C31.5707 22.9314 31.6471 22.8826 31.7332 22.8657H40.7365C41.0146 22.8657 41.1537 22.97 41.1884 23.1438L53.8765 58.9486C53.9808 59.331 53.8765 59.5048 53.5289 59.5048H46.2637C46.1408 59.5166 46.0177 59.4848 45.916 59.4148C45.8142 59.3449 45.7404 59.2413 45.7075 59.1224L42.857 50.849ZM31.9418 43.7924H40.7713C40.5627 43.0624 40.2846 42.1933 39.9718 41.2895C39.6589 40.3857 39.346 39.3429 39.0332 38.3C38.7203 37.2571 38.3727 36.1795 38.0251 35.1019C37.6775 34.0243 37.3646 33.0162 37.0865 32.0081C36.8084 31 36.5651 30.131 36.3218 29.2967H36.2522C35.9398 30.8117 35.5453 32.3087 35.0703 33.781C34.5489 35.4495 34.0275 37.1876 33.4713 38.9257C32.9846 40.6986 32.4632 42.3324 31.9418 43.7924Z" fill="#FF9A00"/>
<path d="M61.4546 28.8098C60.884 28.8223 60.3166 28.7212 59.7855 28.5123C59.2543 28.3034 58.77 27.991 58.3608 27.5932C57.5644 26.7224 57.1402 25.5745 57.1789 24.3951C57.1583 23.8204 57.2592 23.2479 57.4748 22.7148C57.6904 22.1817 58.016 21.7001 58.4303 21.3013C59.2658 20.5115 60.3745 20.0756 61.5241 20.0846C62.8798 20.0846 63.9227 20.5018 64.6875 21.3013C65.4576 22.1442 65.869 23.2539 65.8346 24.3951C65.8558 24.9824 65.7591 25.568 65.5501 26.1173C65.3411 26.6666 65.0241 27.1685 64.6179 27.5932C64.2083 28.0104 63.714 28.3349 63.1683 28.5448C62.6226 28.7547 62.0382 28.8451 61.4546 28.8098ZM57.5613 58.9832V32.2165C57.5613 31.8689 57.7003 31.7298 58.0132 31.7298H64.896C65.2089 31.7298 65.3479 31.9037 65.3479 32.2165V58.9832C65.3479 59.3656 65.2089 59.5394 64.896 59.5394H58.0827C58.0096 59.5454 57.9362 59.5348 57.8678 59.5085C57.7994 59.4821 57.7378 59.4407 57.6877 59.3872C57.6375 59.3337 57.6001 59.2696 57.5782 59.1996C57.5563 59.1297 57.5505 59.0557 57.5613 58.9832Z" fill="#FF9A00"/>
</g>
</g>
<defs>
<filter id="filter0_d_747_4747" x="0.428711" y="0.0429688" width="91.4287" height="89.3428" filterUnits="userSpaceOnUse" color-interpolation-filters="sRGB">
<feFlood flood-opacity="0" result="BackgroundImageFix"/>
<feColorMatrix in="SourceAlpha" type="matrix" values="0 0 0 0 0 0 0 0 0 0 0 0 0 0 0 0 0 0 127 0" result="hardAlpha"/>
<feOffset dx="2" dy="2"/>
<feGaussianBlur stdDeviation="2"/>
<feComposite in2="hardAlpha" operator="out"/>
<feColorMatrix type="matrix" values="0 0 0 0 0 0 0 0 0 0 0 0 0 0 0 0 0 0 0.1 0"/>
<feBlend mode="normal" in2="BackgroundImageFix" result="effect1_dropShadow_747_4747"/>
<feBlend mode="normal" in="SourceGraphic" in2="effect1_dropShadow_747_4747" result="shape"/>
</filter>
<clipPath id="clip0_747_4747">
<rect x="2.42871" y="2.04297" width="83.4286" height="81.3428" rx="40.6714" fill="white"/>
</clipPath>
</defs>
</svg>
