<svg width="93" height="48" viewBox="0 0 93 48" fill="none" xmlns="http://www.w3.org/2000/svg">
<path d="M18.3573 11.5033H24.5213V5.57851L20.2771 1.18091H5.07867L1 5.41904V28.7012L5.07867 33.663H18.1181V42.3785L22.5587 46.819H37.2419L41.8971 42.1638V34.3009H35.96V39.502L35.0829 40.8636H25.3984L24.2821 39.8209V23.1014L25.1592 22.0588H35.1627L36.0397 22.942V27.5788H41.8971V20.9425L37.1621 15.9806H14.5179L9.9608 21.4209H18.6027V27.7382H8.36L7.04133 26.4196V8.85984L8.42133 7.47984H17.3208L18.4125 8.57158L18.3573 11.5033Z" fill="#333333" stroke="#333333" stroke-miterlimit="10"/>
<path d="M47.0004 4.44385H39.481V11.5646H47.0004V4.44385Z" stroke="#80E083" stroke-miterlimit="10"/>
<path d="M50.3979 8.00098H47V11.5583H50.3979V8.00098Z" stroke="#80E083" stroke-miterlimit="10"/>
<path d="M43.2407 1.19922H39.481V4.43762H43.2407V1.19922Z" stroke="#80E083" stroke-miterlimit="10"/>
<path d="M53.0103 33.3458C52.7204 33.4614 52.4388 33.5472 52.1655 33.6034C51.8956 33.6595 51.614 33.6875 51.3208 33.6875C50.8509 33.6875 50.4343 33.6199 50.0711 33.4845C49.7112 33.3458 49.4063 33.1411 49.1563 32.8704C48.9097 32.5996 48.7214 32.2645 48.5915 31.865C48.4648 31.4621 48.4015 30.9949 48.4015 30.4634C48.4015 29.9186 48.4715 29.4349 48.6115 29.0122C48.7514 28.5863 48.9514 28.2281 49.2113 27.9375C49.4712 27.6436 49.7862 27.4208 50.1561 27.2689C50.5293 27.1137 50.9475 27.0361 51.4107 27.0361C51.5607 27.0361 51.7007 27.0394 51.8306 27.046C51.9639 27.0526 52.0939 27.0658 52.2205 27.0856C52.3472 27.1022 52.4755 27.1253 52.6054 27.155C52.7354 27.1847 52.8704 27.2227 53.0103 27.2689V28.4773C52.7271 28.3453 52.4571 28.2512 52.2005 28.195C51.9439 28.1389 51.7107 28.1108 51.5007 28.1108C51.1908 28.1108 50.9259 28.167 50.7059 28.2792C50.486 28.3882 50.3044 28.5434 50.1611 28.7448C50.0211 28.9429 49.9178 29.1806 49.8511 29.458C49.7845 29.732 49.7512 30.0341 49.7512 30.3643C49.7512 30.7143 49.7845 31.028 49.8511 31.3053C49.9211 31.5794 50.0278 31.8121 50.1711 32.0036C50.3144 32.1951 50.4976 32.3421 50.7209 32.4444C50.9442 32.5435 51.2091 32.593 51.5157 32.593C51.6257 32.593 51.744 32.5831 51.8706 32.5633C52.0006 32.5402 52.1305 32.5121 52.2605 32.4791C52.3938 32.4428 52.5238 32.4015 52.6504 32.3553C52.7804 32.3058 52.9003 32.2562 53.0103 32.2067V33.3458Z" fill="#333333"/>
<path d="M57.8691 33.5984L57.5091 32.3206H55.2297L54.8598 33.5984H53.6402L55.5746 27.1253H57.2942L59.2287 33.5984H57.8691ZM56.3844 28.3139L55.5247 31.3251H57.2342L56.3844 28.3139Z" fill="#333333"/>
<path d="M60.2334 33.5984V27.1253H61.4831V32.5534H64.2424V33.5984H60.2334Z" fill="#333333"/>
<path d="M70.2408 30.2801C70.2408 30.782 70.1775 31.2376 70.0509 31.647C69.9276 32.0565 69.7326 32.4065 69.466 32.697C69.2028 32.9843 68.8645 33.2071 68.4513 33.3656C68.0381 33.5208 67.5432 33.5984 66.9667 33.5984H65.3071V27.1253H67.2416C67.7415 27.1253 68.178 27.188 68.5513 27.3135C68.9278 27.4356 69.2411 27.6255 69.491 27.883C69.741 28.1406 69.9276 28.4674 70.0509 28.8637C70.1775 29.2599 70.2408 29.732 70.2408 30.2801ZM68.9212 30.3594C68.9212 30.0094 68.8928 29.6973 68.8362 29.4233C68.7795 29.1493 68.6829 28.9181 68.5463 28.7299C68.413 28.5384 68.233 28.3931 68.0064 28.2941C67.7798 28.195 67.4982 28.1455 67.1616 28.1455H66.5368V32.5781H67.0767C67.6798 32.5781 68.138 32.3999 68.4513 32.0433C68.7645 31.6867 68.9212 31.1254 68.9212 30.3594Z" fill="#333333"/>
<path d="M71.4255 33.5984V27.1253H75.3595V28.1554H72.6752V29.765H75.2345V30.7704H72.6752V32.5682H75.3595V33.5984H71.4255Z" fill="#333333"/>
<path d="M76.8841 28.1208V27.1253H81.013V28.1208H79.5734V32.593H81.013V33.5984H76.8841V32.593H78.3237V28.1208H76.8841Z" fill="#333333"/>
<path d="M85.7018 33.5984L84.782 31.5183C84.6954 31.3202 84.5738 31.1716 84.4171 31.0725C84.2638 30.9702 84.0822 30.919 83.8723 30.919H83.6373V33.5984H82.4077V27.1253H84.3122C84.6721 27.1253 84.9986 27.1566 85.2919 27.2194C85.5852 27.2788 85.8351 27.3795 86.0417 27.5215C86.2483 27.6635 86.4066 27.8484 86.5166 28.0762C86.6299 28.304 86.6865 28.583 86.6865 28.9132C86.6865 29.1509 86.6516 29.3622 86.5816 29.5471C86.5116 29.732 86.4133 29.8922 86.2866 30.0275C86.16 30.1596 86.0084 30.2669 85.8318 30.3495C85.6585 30.432 85.4685 30.4898 85.2619 30.5228C85.4219 30.5558 85.5685 30.6466 85.7018 30.7952C85.8351 30.9405 85.9684 31.1518 86.1017 31.4291L87.1464 33.5984H85.7018ZM85.3969 29.032C85.3969 28.7151 85.2952 28.4872 85.092 28.3486C84.8887 28.2099 84.5838 28.1406 84.1772 28.1406H83.6373V29.9681H84.1372C84.3272 29.9681 84.4988 29.9483 84.6521 29.9087C84.8087 29.869 84.942 29.8096 85.052 29.7304C85.1619 29.6511 85.2469 29.5537 85.3069 29.4382C85.3669 29.3193 85.3969 29.1839 85.3969 29.032Z" fill="#333333"/>
<path d="M91.6403 33.5984L91.2803 32.3206H89.0009L88.631 33.5984H87.4114L89.3459 27.1253H91.0654L92.9999 33.5984H91.6403ZM90.1556 28.3139L89.2959 31.3251H91.0054L90.1556 28.3139Z" fill="#333333"/>
<path d="M50.8359 21.5618V20.5564H53.1603V24.0084C52.8604 24.1471 52.5471 24.2494 52.2205 24.3155C51.8939 24.3815 51.539 24.4145 51.1558 24.4145C50.7026 24.4145 50.2944 24.3452 49.9311 24.2065C49.5712 24.0678 49.2646 23.8615 49.0114 23.5874C48.7581 23.3134 48.5631 22.9733 48.4265 22.5672C48.2932 22.161 48.2266 21.6905 48.2266 21.1557C48.2266 20.6175 48.2965 20.1354 48.4365 19.7095C48.5798 19.2835 48.7864 18.9237 49.0563 18.6298C49.3296 18.3326 49.6629 18.1065 50.0561 17.9513C50.4526 17.7961 50.9042 17.7185 51.4107 17.7185C51.7107 17.7185 52.0022 17.7449 52.2855 17.7977C52.5721 17.8473 52.857 17.915 53.1403 18.0008V19.2043C52.8937 19.0887 52.6204 18.9946 52.3205 18.922C52.0239 18.8461 51.724 18.8081 51.4207 18.8081C51.1141 18.8081 50.8425 18.8609 50.6059 18.9666C50.3727 19.0722 50.1761 19.2225 50.0161 19.4173C49.8595 19.6121 49.7395 19.8515 49.6562 20.1354C49.5762 20.4194 49.5362 20.7396 49.5362 21.0962C49.5362 21.4396 49.5679 21.75 49.6312 22.0273C49.6945 22.3014 49.7962 22.5358 49.9361 22.7306C50.0794 22.9221 50.2627 23.069 50.486 23.1714C50.7092 23.2737 50.9808 23.3249 51.3008 23.3249C51.3774 23.3249 51.4441 23.3233 51.5007 23.32C51.5574 23.3134 51.6107 23.3051 51.6607 23.2952C51.7107 23.2853 51.7573 23.2737 51.8006 23.2605C51.8473 23.2473 51.8956 23.2325 51.9456 23.216V21.5618H50.8359Z" fill="#333333"/>
<path d="M54.5399 24.3006V17.8275H58.4739V18.8576H55.7896V20.4672H58.3489V21.4726H55.7896V23.2704H58.4739V24.3006H54.5399Z" fill="#333333"/>
<path d="M63.1877 24.3006L62.2679 22.2205C62.1813 22.0224 62.0596 21.8738 61.903 21.7747C61.7497 21.6724 61.5681 21.6212 61.3581 21.6212H61.1232V24.3006H59.8935V17.8275H61.798C62.1579 17.8275 62.4845 17.8588 62.7778 17.9216C63.071 17.981 63.321 18.0817 63.5276 18.2237C63.7342 18.3657 63.8925 18.5506 64.0025 18.7784C64.1158 19.0062 64.1724 19.2852 64.1724 19.6154C64.1724 19.8531 64.1374 20.0644 64.0674 20.2493C63.9975 20.4342 63.8991 20.5944 63.7725 20.7297C63.6459 20.8618 63.4943 20.9691 63.3176 21.0516C63.1443 21.1342 62.9544 21.192 62.7478 21.225C62.9077 21.258 63.0544 21.3488 63.1877 21.4974C63.321 21.6427 63.4543 21.854 63.5876 22.1313L64.6323 24.3006H63.1877ZM62.8827 19.7342C62.8827 19.4173 62.7811 19.1894 62.5778 19.0508C62.3745 18.9121 62.0696 18.8428 61.6631 18.8428H61.1232V20.6703H61.6231C61.813 20.6703 61.9846 20.6505 62.1379 20.6109C62.2946 20.5712 62.4279 20.5118 62.5378 20.4326C62.6478 20.3533 62.7328 20.2559 62.7928 20.1404C62.8528 20.0215 62.8827 19.8861 62.8827 19.7342Z" fill="#333333"/>
<path d="M69.1261 24.3006L68.7662 23.0228H66.4868L66.1169 24.3006H64.8972L66.8317 17.8275H68.5513L70.4858 24.3006H69.1261ZM67.6415 19.0161L66.7817 22.0273H68.4913L67.6415 19.0161Z" fill="#333333"/>
<path d="M73.0001 24.3006C72.7902 24.2643 72.5569 24.1817 72.3003 24.053C72.0437 23.9242 71.8088 23.7343 71.5955 23.4834C71.3822 23.2325 71.2156 22.9105 71.0956 22.5176C70.9756 22.1247 70.9157 21.674 70.9157 21.1656C70.9157 20.6208 70.9856 20.1371 71.1256 19.7144C71.2656 19.2885 71.4655 18.9303 71.7254 18.6397C71.9854 18.3458 72.3003 18.123 72.6702 17.9711C73.0434 17.8159 73.4617 17.7383 73.9249 17.7383C74.0748 17.7383 74.2148 17.7416 74.3448 17.7482C74.4781 17.7548 74.608 17.768 74.7347 17.7878C74.8613 17.8044 74.9896 17.8275 75.1196 17.8572C75.2495 17.8869 75.3845 17.9249 75.5245 17.9711V19.1795C75.2412 19.0475 74.9713 18.9534 74.7147 18.8972C74.4581 18.8411 74.2248 18.813 74.0148 18.813C73.7049 18.813 73.44 18.8692 73.2201 18.9814C73.0001 19.0904 72.8185 19.2456 72.6752 19.447C72.5352 19.6451 72.4319 19.8828 72.3653 20.1602C72.2986 20.4342 72.2653 20.7363 72.2653 21.0665C72.2653 21.4165 72.2986 21.7302 72.3653 22.0075C72.4353 22.2816 72.5419 22.5143 72.6852 22.7058C72.8285 22.8973 73.0118 23.0443 73.235 23.1466C73.4583 23.2457 73.7233 23.2952 74.0298 23.2952C74.1398 23.2952 74.2581 23.2853 74.3847 23.2655C74.5147 23.2424 74.6447 23.2143 74.7746 23.1813C74.9079 23.145 75.0379 23.1037 75.1645 23.0575C75.2945 23.008 75.4145 22.9584 75.5245 22.9089V24.048C75.2345 24.1636 74.9729 24.2461 74.7397 24.2956C74.5097 24.3452 74.2998 24.3732 74.1098 24.3798L73.585 25.7616H72.6952L73.0001 24.3006Z" fill="#333333"/>
<path d="M80.3832 24.3006L80.0233 23.0228H77.7439L77.374 24.3006H76.1543L78.0888 17.8275H79.8083L81.7428 24.3006H80.3832ZM78.8986 19.0161L78.0388 22.0273H79.7484L78.8986 19.0161ZM80.8331 16.4803C80.6931 16.7445 80.5298 16.9409 80.3432 17.0697C80.1566 17.1985 79.9283 17.2629 79.6584 17.2629C79.4618 17.2629 79.2951 17.2364 79.1585 17.1836C79.0252 17.1308 78.9052 17.073 78.7986 17.0103C78.6953 16.9442 78.5986 16.8848 78.5087 16.832C78.4187 16.7792 78.3204 16.7527 78.2138 16.7527C78.0904 16.7527 77.9821 16.7924 77.8888 16.8716C77.7955 16.9475 77.7022 17.0565 77.6089 17.1985L77.0641 16.6834C77.204 16.416 77.3673 16.2195 77.5539 16.094C77.7405 15.9653 77.9705 15.9009 78.2437 15.9009C78.4404 15.9009 78.6053 15.9273 78.7386 15.9801C78.8752 16.0329 78.9952 16.0924 79.0985 16.1584C79.2052 16.2212 79.3035 16.2789 79.3934 16.3318C79.4834 16.3846 79.5817 16.411 79.6884 16.411C79.8117 16.411 79.92 16.373 80.0133 16.2971C80.1066 16.2178 80.1982 16.1072 80.2882 15.9653L80.8331 16.4803Z" fill="#333333"/>
<path d="M87.2064 21.0368C87.2064 21.6245 87.1364 22.1313 86.9965 22.5573C86.8598 22.9832 86.6699 23.3332 86.4266 23.6072C86.1867 23.8813 85.9034 24.0843 85.5768 24.2164C85.2536 24.3485 84.907 24.4145 84.5371 24.4145C83.6773 24.4145 83.0308 24.1322 82.5976 23.5676C82.1644 22.9997 81.9478 22.1759 81.9478 21.0962C81.9478 20.5085 82.0161 20.0017 82.1527 19.5758C82.2927 19.1498 82.4826 18.7998 82.7226 18.5258C82.9658 18.2517 83.2491 18.0487 83.5724 17.9166C83.8989 17.7845 84.2472 17.7185 84.6171 17.7185C85.4769 17.7185 86.1234 18.0008 86.5566 18.5654C86.9898 19.13 87.2064 19.9538 87.2064 21.0368ZM85.9067 21.0962C85.9067 20.3302 85.8034 19.759 85.5968 19.3826C85.3902 19.0062 85.0503 18.818 84.5771 18.818C84.3405 18.818 84.1389 18.8675 83.9723 18.9666C83.8056 19.0623 83.6673 19.2043 83.5574 19.3925C83.4507 19.5807 83.3724 19.8135 83.3224 20.0908C83.2724 20.3649 83.2474 20.6802 83.2474 21.0368C83.2474 21.8028 83.3507 22.374 83.5574 22.7504C83.7673 23.1268 84.1072 23.315 84.5771 23.315C84.8137 23.315 85.0153 23.2671 85.1819 23.1714C85.3519 23.0723 85.4902 22.9287 85.5968 22.7405C85.7035 22.5523 85.7818 22.3212 85.8318 22.0471C85.8818 21.7698 85.9067 21.4528 85.9067 21.0962Z" fill="#333333"/>
</svg>
