<svg width="93" height="90" viewBox="0 0 93 90" fill="none" xmlns="http://www.w3.org/2000/svg">
<g filter="url(#filter0_d_747_4748)">
<g clip-path="url(#clip0_747_4748)">
<path d="M17.6307 2.04298H71.5117C73.4523 2.04115 75.3743 2.42203 77.1676 3.16384C78.9608 3.90564 80.5902 4.99381 81.9624 6.36604C83.3347 7.73828 84.4228 9.36766 85.1646 11.1609C85.9065 12.9542 86.2873 14.8761 86.2855 16.8168V68.612C86.2873 70.5527 85.9065 72.4746 85.1646 74.2679C84.4228 76.0611 83.3347 77.6905 81.9624 79.0628C80.5902 80.435 78.9608 81.5232 77.1676 82.265C75.3743 83.0068 73.4523 83.3877 71.5117 83.3858H17.6307C15.6901 83.3877 13.7682 83.0068 11.9749 82.265C10.1816 81.5232 8.55225 80.435 7.18001 79.0628C5.80777 77.6905 4.71961 76.0611 3.9778 74.2679C3.236 72.4746 2.85511 70.5527 2.85694 68.612V16.8168C2.85511 14.8761 3.236 12.9542 3.9778 11.1609C4.71961 9.36766 5.80777 7.73828 7.18001 6.36604C8.55225 4.99381 10.1816 3.90564 11.9749 3.16384C13.7682 2.42203 15.6901 2.04115 17.6307 2.04298Z" fill="#001E36"/>
<path d="M21.6284 59.087V23.317C21.6284 23.0737 21.7327 22.9346 21.976 22.9346C22.567 22.9346 23.1232 22.9346 23.9227 22.8999C24.7222 22.8651 25.626 22.8651 26.5646 22.8304C27.5032 22.7956 28.5113 22.7956 29.5889 22.7608C30.6665 22.7261 31.7094 22.7261 32.7522 22.7261C35.6027 22.7261 37.9665 23.0737 39.9132 23.8037C41.6582 24.3963 43.2494 25.37 44.5713 26.6542C45.6914 27.778 46.5569 29.1295 47.1089 30.617C47.6351 32.0657 47.9056 33.5948 47.9084 35.1361C47.9084 38.1256 47.2132 40.5937 45.8227 42.5404C44.4258 44.4844 42.4754 45.9623 40.226 46.7813C37.8622 47.6504 35.2551 47.9632 32.4046 47.9632C31.5703 47.9632 31.0141 47.9632 30.6665 47.9285C30.3189 47.8937 29.8322 47.8937 29.1718 47.8937V59.0523C29.1795 59.1095 29.1757 59.1676 29.1606 59.2233C29.1454 59.279 29.1192 59.3311 29.0836 59.3765C29.0479 59.4219 29.0035 59.4597 28.9529 59.4876C28.9024 59.5155 28.8468 59.5329 28.7894 59.5389H22.0456C21.7675 59.5389 21.6284 59.3999 21.6284 59.087ZM29.2065 29.6437V41.3237C29.6932 41.3585 30.1451 41.3932 30.5622 41.3932H32.4046C33.7617 41.3948 35.1106 41.1837 36.4022 40.7675C37.5104 40.4416 38.5005 39.8017 39.2527 38.9251C39.9827 38.0561 40.3303 36.8742 40.3303 35.3446C40.363 34.2584 40.0857 33.1853 39.5308 32.2508C38.9512 31.3483 38.0987 30.6541 37.0975 30.2694C35.7925 29.7583 34.3961 29.5216 32.9956 29.5742C32.0918 29.5742 31.2922 29.5742 30.6318 29.6089C30.1566 29.5779 29.6796 29.5895 29.2065 29.6437Z" fill="#31A8FF"/>
<path d="M69.6 39.2034C68.5504 38.6506 67.4264 38.2525 66.2628 38.0215C64.9849 37.732 63.6797 37.5805 62.3695 37.5695C61.666 37.5453 60.9628 37.6273 60.2838 37.8129C59.8508 37.903 59.4667 38.1508 59.2061 38.5081C59.0305 38.7902 58.9344 39.1145 58.9281 39.4467C58.9442 39.7774 59.0661 40.0942 59.2757 40.3505C59.6051 40.7369 60.0065 41.0557 60.4576 41.2891C61.2571 41.7062 62.0914 42.0886 62.9257 42.4362C64.8038 43.0685 66.6006 43.9202 68.279 44.9738C69.4206 45.6916 70.3646 46.6835 71.0252 47.8591C71.5838 48.968 71.8585 50.1983 71.8247 51.4396C71.8529 53.0826 71.38 54.6952 70.469 56.0629C69.4994 57.4505 68.1465 58.5256 66.5757 59.1567C64.8723 59.8867 62.7866 60.2691 60.2838 60.2691C58.6968 60.2755 57.1132 60.1241 55.5561 59.8172C54.3301 59.6053 53.1378 59.2312 52.0104 58.7048C51.8892 58.644 51.7885 58.5491 51.7205 58.4317C51.6526 58.3144 51.6204 58.1797 51.6281 58.0443V51.9957C51.625 51.9363 51.6361 51.8771 51.6602 51.8227C51.6844 51.7684 51.721 51.7205 51.7671 51.6829C51.8161 51.6543 51.8729 51.6423 51.9293 51.6486C51.9856 51.6548 52.0384 51.6791 52.08 51.7176C53.419 52.5071 54.8735 53.0818 56.3904 53.421C57.7298 53.7695 59.1084 53.9447 60.4923 53.9424C61.8133 53.9424 62.7519 53.7686 63.3776 53.4557C63.6567 53.3268 63.8932 53.121 64.0594 52.8624C64.2257 52.6038 64.3147 52.3032 64.3161 51.9957C64.3161 51.5091 64.038 51.0572 63.4819 50.6053C62.9257 50.1534 61.7785 49.6319 60.0752 48.9715C58.3278 48.3557 56.6684 47.5143 55.139 46.4686C54.0497 45.6922 53.1472 44.6828 52.4971 43.5138C51.9423 42.4159 51.6677 41.1979 51.6976 39.9681C51.7027 38.4848 52.1112 37.0308 52.8795 35.7619C53.7625 34.3664 55.0301 33.2559 56.5295 32.5638C58.1633 31.7295 60.2142 31.3472 62.6823 31.3472C64.1248 31.3476 65.5654 31.4521 66.9928 31.66C68.0191 31.7989 69.0237 32.0676 69.9823 32.4595C70.1351 32.5137 70.2601 32.6262 70.33 32.7724C70.37 32.9081 70.3934 33.0482 70.3995 33.1895V38.8557C70.4 38.9233 70.3846 38.99 70.3544 39.0504C70.3241 39.1109 70.28 39.1633 70.2257 39.2034C70.0234 39.2761 69.8022 39.2761 69.6 39.2034Z" fill="#31A8FF"/>
</g>
</g>
<defs>
<filter id="filter0_d_747_4748" x="0.856934" y="0.0429688" width="91.4287" height="89.3428" filterUnits="userSpaceOnUse" color-interpolation-filters="sRGB">
<feFlood flood-opacity="0" result="BackgroundImageFix"/>
<feColorMatrix in="SourceAlpha" type="matrix" values="0 0 0 0 0 0 0 0 0 0 0 0 0 0 0 0 0 0 127 0" result="hardAlpha"/>
<feOffset dx="2" dy="2"/>
<feGaussianBlur stdDeviation="2"/>
<feComposite in2="hardAlpha" operator="out"/>
<feColorMatrix type="matrix" values="0 0 0 0 0 0 0 0 0 0 0 0 0 0 0 0 0 0 0.1 0"/>
<feBlend mode="normal" in2="BackgroundImageFix" result="effect1_dropShadow_747_4748"/>
<feBlend mode="normal" in="SourceGraphic" in2="effect1_dropShadow_747_4748" result="shape"/>
</filter>
<clipPath id="clip0_747_4748">
<rect x="2.85693" y="2.04297" width="83.4286" height="81.3429" rx="40.6714" fill="white"/>
</clipPath>
</defs>
</svg>
