<svg width="92" height="90" viewBox="0 0 92 90" fill="none" xmlns="http://www.w3.org/2000/svg">
<g filter="url(#filter0_d_907_432)">
<rect x="2" y="2" width="83.4286" height="81.3429" rx="40.6714" fill="#1E2235" shape-rendering="crispEdges"/>
<path d="M43.7142 46.6552C45.971 46.6552 47.8004 44.8715 47.8004 42.6711C47.8004 40.4708 45.971 38.687 43.7142 38.687C41.4574 38.687 39.6279 40.4708 39.6279 42.6711C39.6279 44.8715 41.4574 46.6552 43.7142 46.6552Z" fill="#61DAFB"/>
<path fill-rule="evenodd" clip-rule="evenodd" d="M24.5095 40.5722C23.5841 41.3867 23.2779 42.0984 23.2779 42.6712C23.2779 43.2441 23.5841 43.9558 24.5095 44.7703C25.4347 45.5846 26.8571 46.3845 28.7416 47.086C32.5003 48.4853 37.7936 49.3812 43.7144 49.3812C49.6352 49.3812 54.9284 48.4853 58.6872 47.086C60.5716 46.3845 61.9941 45.5846 62.9193 44.7703C63.8446 43.9558 64.1508 43.2441 64.1508 42.6712C64.1508 42.0984 63.8446 41.3867 62.9193 40.5722C61.9941 39.7579 60.5716 38.958 58.6872 38.2565C54.9284 36.8572 49.6352 35.9613 43.7144 35.9613C37.7936 35.9613 32.5003 36.8572 28.7416 38.2565C26.8571 38.958 25.4347 39.7579 24.5095 40.5722ZM27.6788 35.5425C31.8558 33.9875 37.5256 33.0562 43.7144 33.0562C49.9031 33.0562 55.573 33.9875 59.75 35.5425C61.8334 36.318 63.622 37.277 64.9158 38.4158C66.2095 39.5545 67.1304 40.99 67.1304 42.6712C67.1304 44.3525 66.2095 45.788 64.9158 46.9267C63.622 48.0655 61.8334 49.0244 59.75 49.8C55.573 51.355 49.9031 52.2863 43.7144 52.2863C37.5256 52.2863 31.8558 51.355 27.6788 49.8C25.5954 49.0244 23.8068 48.0655 22.5129 46.9267C21.2192 45.788 20.2983 44.3525 20.2983 42.6712C20.2983 40.99 21.2192 39.5545 22.5129 38.4158C23.8068 37.277 25.5954 36.318 27.6788 35.5425Z" fill="#61DAFB"/>
<path fill-rule="evenodd" clip-rule="evenodd" d="M35.9764 25.4056C34.7903 25.0315 34.005 25.1288 33.4962 25.4152C32.9875 25.7016 32.5084 26.3161 32.2476 27.5046C31.9869 28.693 31.9876 30.294 32.3067 32.236C32.9432 36.1094 34.794 41.0269 37.7544 46.0263C40.7148 51.0256 44.1573 55.0471 47.2795 57.5213C48.8449 58.7617 50.2666 59.5628 51.4525 59.9369C52.6386 60.311 53.4239 60.2137 53.9327 59.9273C54.4415 59.6409 54.9206 59.0264 55.1813 57.8379C55.442 56.6495 55.4413 55.0485 55.1222 53.1065C54.4857 49.2331 52.6349 44.3156 49.6745 39.3163C46.7141 34.3169 43.2717 30.2954 40.1494 27.8212C38.5841 26.5808 37.1623 25.7797 35.9764 25.4056ZM42.0287 25.5668C45.4984 28.3163 49.1605 32.6381 52.2549 37.8637C55.3493 43.0893 57.357 48.3425 58.0643 52.6469C58.4171 54.7939 58.4596 56.7836 58.095 58.4455C57.7305 60.1072 56.9158 61.6026 55.4225 62.4432C53.9292 63.2838 52.1936 63.224 50.5354 62.7009C48.8769 62.1778 47.1309 61.1471 45.4003 59.7757C41.9306 57.0262 38.2684 52.7044 35.174 47.4788C32.0797 42.2532 30.072 37 29.3647 32.6956C29.0119 30.5486 28.9693 28.5589 29.3339 26.897C29.6985 25.2353 30.5131 23.74 32.0065 22.8993C33.4998 22.0587 35.2353 22.1185 36.8936 22.6416C38.552 23.1647 40.2981 24.1954 42.0287 25.5668Z" fill="#61DAFB"/>
<path fill-rule="evenodd" clip-rule="evenodd" d="M55.1813 27.5048C54.9206 26.3162 54.4415 25.7018 53.9327 25.4154C53.4239 25.129 52.6386 25.0316 51.4525 25.4058C50.2666 25.7798 48.8449 26.5809 47.2795 27.8214C44.1572 30.2955 40.7148 34.317 37.7544 39.3164C34.794 44.3158 32.9432 49.2332 32.3067 53.1066C31.9876 55.0486 31.9869 56.6496 32.2476 57.838C32.5083 59.0266 32.9874 59.641 33.4962 59.9274C34.005 60.2138 34.7903 60.3111 35.9764 59.937C37.1623 59.563 38.584 58.7619 40.1494 57.5214C43.2717 55.0473 46.7141 51.0258 49.6745 46.0264C52.6349 41.027 54.4857 36.1096 55.1222 32.2362C55.4413 30.2942 55.442 28.6931 55.1813 27.5048ZM58.0643 32.6957C57.3569 37.0002 55.3492 42.2533 52.2549 47.4789C49.1605 52.7046 45.4983 57.0264 42.0287 59.7758C40.2981 61.1472 38.552 62.178 36.8935 62.7011C35.2353 63.2241 33.4997 63.2839 32.0064 62.4433C30.5131 61.6027 29.6984 60.1073 29.3339 58.4456C28.9693 56.7837 29.0118 54.794 29.3646 52.6471C30.0719 48.3426 32.0797 43.0895 35.174 37.8638C38.2684 32.6382 41.9305 28.3164 45.4002 25.5669C47.1308 24.1956 48.8769 23.1648 50.5354 22.6417C52.1936 22.1187 53.9292 22.0589 55.4225 22.8995C56.9158 23.7401 57.7305 25.2354 58.095 26.8971C58.4596 28.5591 58.4171 30.5488 58.0643 32.6957Z" fill="#61DAFB"/>
</g>
<defs>
<filter id="filter0_d_907_432" x="0" y="0" width="91.4287" height="89.3428" filterUnits="userSpaceOnUse" color-interpolation-filters="sRGB">
<feFlood flood-opacity="0" result="BackgroundImageFix"/>
<feColorMatrix in="SourceAlpha" type="matrix" values="0 0 0 0 0 0 0 0 0 0 0 0 0 0 0 0 0 0 127 0" result="hardAlpha"/>
<feOffset dx="2" dy="2"/>
<feGaussianBlur stdDeviation="2"/>
<feComposite in2="hardAlpha" operator="out"/>
<feColorMatrix type="matrix" values="0 0 0 0 0 0 0 0 0 0 0 0 0 0 0 0 0 0 0.1 0"/>
<feBlend mode="normal" in2="BackgroundImageFix" result="effect1_dropShadow_907_432"/>
<feBlend mode="normal" in="SourceGraphic" in2="effect1_dropShadow_907_432" result="shape"/>
</filter>
</defs>
</svg>
