<svg width="25" height="27" viewBox="0 0 25 27" fill="none" xmlns="http://www.w3.org/2000/svg">
<path d="M10.9453 6.48095C10.4169 5.84291 10.5058 4.89733 11.1439 4.36895C11.7819 3.84057 12.7275 3.92947 13.2559 4.56751L10.9453 6.48095ZM19.8514 13.18L18.8118 14.2613L18.8118 14.2613L19.8514 13.18ZM20.8362 14.3062L21.9274 15.3354L20.8362 14.3062ZM19.4998 15.9603L18.4391 14.8996L18.6177 14.721L18.8451 14.6107L19.4998 15.9603ZM15.9998 19.4603L17.0604 20.5209L17.0185 20.5629L16.9734 20.6014L15.9998 19.4603ZM13.6148 23.964C13.0605 24.5797 12.1121 24.6295 11.4964 24.0753C10.8807 23.521 10.8309 22.5725 11.3852 21.9569L13.6148 23.964ZM3.76159 14.8637C2.93829 14.7716 2.3455 14.0296 2.43755 13.2063C2.5296 12.383 3.27164 11.7902 4.09494 11.8822L3.76159 14.8637ZM13.2559 4.56751C15.5067 7.28548 18.1676 9.48037 20.891 12.0987L18.8118 14.2613C16.3006 11.847 13.3395 9.37202 10.9453 6.48095L13.2559 4.56751ZM20.891 12.0987C20.8262 12.0364 21.2983 12.466 21.5106 12.6783C21.645 12.8127 21.8263 13.0021 21.9715 13.2004C22.0356 13.2878 22.1617 13.4683 22.2484 13.7047C22.302 13.8509 22.5701 14.654 21.9274 15.3354L19.745 13.2769C19.4558 13.5835 19.3596 13.9451 19.3506 14.2218C19.3425 14.469 19.4011 14.6539 19.4315 14.7369C19.4656 14.8297 19.5014 14.8935 19.5177 14.9211C19.5359 14.952 19.5491 14.9701 19.5515 14.9734C19.5553 14.9785 19.5445 14.9637 19.5108 14.9263C19.4793 14.8915 19.4386 14.849 19.3894 14.7997C19.2901 14.7005 19.1776 14.5955 19.0738 14.5007C18.9978 14.4313 18.8649 14.3123 18.8118 14.2613L20.891 12.0987ZM21.9274 15.3354C21.9281 15.3346 21.8865 15.3834 21.7786 15.5402C21.731 15.6095 21.6809 15.6842 21.6226 15.7712C21.5663 15.8552 21.5032 15.9491 21.4381 16.0434C21.312 16.226 21.1532 16.4474 20.9774 16.6489C20.8252 16.8234 20.5459 17.12 20.1545 17.3099L18.8451 14.6107C18.6759 14.6928 18.6311 14.775 18.7165 14.677C18.7784 14.6061 18.8603 14.4968 18.9691 14.3392C19.0215 14.2633 19.0744 14.1847 19.1313 14.0998C19.1863 14.0178 19.247 13.9272 19.3063 13.8409C19.4124 13.6866 19.5696 13.4629 19.745 13.2769L21.9274 15.3354ZM20.5604 17.0209C19.3104 18.2709 18.4354 19.1459 17.8729 19.7084C17.5917 19.9897 17.3885 20.1928 17.2557 20.3256C17.1893 20.392 17.1405 20.4409 17.1083 20.4731C17.0922 20.4892 17.0802 20.5012 17.0723 20.5091C17.0683 20.5131 17.0653 20.516 17.0634 20.518C17.0624 20.519 17.0616 20.5197 17.0612 20.5202C17.0609 20.5204 17.0607 20.5206 17.0606 20.5208C17.0606 20.5208 17.0605 20.5208 17.0605 20.5208C17.0605 20.5209 17.0605 20.5209 17.0605 20.5209C17.0604 20.5209 17.0604 20.5209 17.0604 20.5209C17.0604 20.5209 17.0604 20.5209 15.9998 19.4603C14.9391 18.3996 14.9391 18.3996 14.9391 18.3996C14.9391 18.3996 14.9391 18.3996 14.9391 18.3996C14.9392 18.3996 14.9392 18.3995 14.9393 18.3994C14.9394 18.3993 14.9396 18.3991 14.9398 18.3989C14.9403 18.3984 14.9411 18.3977 14.942 18.3967C14.944 18.3947 14.947 18.3917 14.9509 18.3878C14.9589 18.3798 14.9708 18.3679 14.9869 18.3518C15.0192 18.3195 15.068 18.2707 15.1344 18.2043C15.2672 18.0715 15.4703 17.8684 15.7516 17.5871C16.3141 17.0246 17.1891 16.1496 18.4391 14.8996L20.5604 17.0209ZM16.9734 20.6014C16.0769 21.3663 14.4499 23.0365 13.6148 23.964L11.3852 21.9569C12.2534 20.9924 13.9822 19.2099 15.0261 18.3192L16.9734 20.6014ZM18.8061 15.8606C10.4891 15.754 10.6826 15.6375 3.76159 14.8637L4.09494 11.8822C10.9753 12.6515 10.6706 12.7561 18.8445 12.8608L18.8061 15.8606Z" fill="#F0B2CD"/>
</svg>
